<?xml version="1.0" standalone="no"?>
<!DOCTYPE svg PUBLIC "-//W3C//DTD SVG 20010904//EN"
 "http://www.w3.org/TR/2001/REC-SVG-20010904/DTD/svg10.dtd">
<svg version="1.0" xmlns="http://www.w3.org/2000/svg"
 width="300.000000pt" height="300.000000pt" viewBox="0 0 300.000000 300.000000"
 preserveAspectRatio="xMidYMid meet">
<g transform="translate(0.000000,300.000000) scale(0.050000,-0.050000)"
fill="#6fa8de" stroke="none">
<path d="M3848 5852 c-479 -78 -865 -287 -1095 -593 -88 -115 -110 -133 -212
-164 -230 -70 -366 -242 -406 -514 -39 -273 48 -495 212 -537 60 -16 64 -22
78 -145 27 -242 58 -429 107 -637 27 -114 44 -213 38 -218 -15 -16 -18 -10
-109 226 -87 227 -102 249 -173 250 -61 0 -95 -48 -179 -255 -69 -169 -79
-183 -122 -172 -49 12 -90 -51 -84 -128 13 -150 -47 -163 -414 -89 l-295 60
-282 -105 c-309 -116 -309 -116 -264 -47 26 40 137 83 612 236 451 146 580
195 580 221 0 18 -31 457 -70 976 -38 519 -70 971 -70 1004 0 53 -12 66 -95
102 l-95 42 -749 -104 c-413 -57 -754 -107 -759 -112 -26 -26 68 -16 750 79
608 84 753 99 799 80 68 -28 75 -27 -851 -158 -357 -51 -663 -97 -680 -103
-95 -36 94 -15 820 91 446 65 812 116 815 113 7 -7 145 -1862 145 -1952 l0
-71 -175 -56 c-867 -278 -1598 -520 -1614 -534 -34 -32 15 -20 289 72 335 112
330 112 276 1 -46 -95 -77 -111 -471 -240 -58 -19 -105 -43 -105 -55 0 -11 16
-14 35 -7 19 8 140 50 268 94 l233 80 224 -94 c123 -52 216 -101 206 -109 -76
-69 -835 -283 -899 -253 -86 41 -88 11 -2 -36 l65 -34 448 151 c247 84 452
149 456 144 9 -9 5 -10 -516 -192 l-393 -137 -62 38 c-71 43 -87 18 -19 -30
68 -47 94 -42 555 120 235 82 436 147 445 144 53 -17 -131 -137 -404 -263
-448 -207 -441 -243 70 -383 410 -112 286 -149 1069 314 718 424 732 438 481
498 -253 60 -234 232 24 212 142 -11 156 -20 156 -100 0 -78 43 -143 121 -184
86 -44 80 -115 -16 -176 -258 -165 -1315 -753 -1353 -753 -26 0 -301 54 -612
120 -486 104 -620 125 -578 94 4 -4 280 -64 612 -133 l604 -127 692 395 c381
217 695 392 699 388 39 -43 -790 -567 -1383 -874 -36 -19 -148 -1 -609 97
-551 117 -672 138 -587 99 33 -15 1063 -239 1099 -239 6 0 11 -288 11 -640 0
-413 7 -640 20 -640 13 0 20 227 20 640 0 462 6 640 23 640 12 0 253 134 535
297 281 163 591 339 688 391 l176 95 -6 -166 -6 -165 -500 -306 c-275 -168
-556 -341 -625 -385 l-125 -79 0 -481 c0 -307 7 -481 20 -481 13 0 20 172 20
475 l0 475 115 72 115 71 435 -90 434 -89 32 -84 c35 -93 216 -174 269 -122
17 16 34 6 65 -38 23 -33 86 -103 140 -156 95 -94 97 -98 66 -145 -128 -196
106 -298 432 -188 l122 41 176 -41 c232 -55 532 -95 834 -112 168 -10 251 -23
267 -42 60 -72 631 -13 668 69 13 29 48 52 100 65 277 68 340 92 347 128 6 29
-1 34 -30 22 -122 -49 -417 -110 -425 -88 -33 101 -138 166 -261 161 -162 -7
-326 -69 -390 -150 -29 -35 -60 -74 -70 -87 -34 -42 -594 3 -941 76 -1079 225
-1265 545 -1207 2073 l13 346 172 -14 c150 -12 180 -21 238 -71 36 -31 76 -57
90 -57 13 0 -6 19 -43 41 -37 23 -63 46 -56 52 22 23 333 -16 319 -40 -7 -13
4 -9 26 9 26 22 132 43 334 66 l295 34 52 -62 c156 -186 564 -301 697 -197
241 190 93 559 -299 747 -342 164 -483 134 -524 -113 -13 -83 0 -79 -339 -120
-197 -23 -204 -23 -258 19 -39 31 -80 43 -138 41 l-82 -2 95 -14 c140 -19 197
-81 74 -81 -139 1 -240 22 -225 48 8 13 1 12 -17 -3 -27 -22 -409 -5 -425 19
-9 12 -132 568 -145 652 l-12 85 62 -35 c41 -24 63 -52 63 -81 0 -81 73 -131
173 -120 128 15 167 58 167 187 0 88 7 111 42 129 88 47 126 246 69 358 -38
73 -121 101 -303 101 -211 0 -260 -31 -295 -190 -4 -22 -9 37 -11 130 -12 927
531 1531 1474 1641 454 52 1061 -90 1048 -246 -20 -218 414 -629 498 -472 l23
44 27 -49 c99 -179 145 -418 168 -868 19 -399 74 -666 203 -990 96 -243 103
-122 9 161 -104 312 -132 473 -152 859 -23 456 -59 637 -172 862 -43 87 -44
97 -17 188 106 352 -119 587 -402 420 l-89 -52 -176 71 c-327 130 -743 178
-1076 123z m1621 -183 c107 -71 117 -256 22 -461 l-50 -110 -55 30 c-107 56
-326 320 -326 392 1 100 311 213 409 149z m-2901 -722 c-75 -170 -128 -413
-142 -652 -13 -229 -15 -232 -109 -184 -254 132 -155 747 145 896 154 77 164
71 106 -60z m458 -850 c88 -109 2 -303 -136 -308 -39 -1 -116 -24 -171 -49
-89 -42 -103 -44 -130 -17 -30 30 -69 200 -39 173 41 -39 250 170 250 250 0
40 187 0 226 -49z m-86 -465 c0 -159 -108 -190 -129 -37 -19 133 -19 134 33
147 67 17 96 -16 96 -110z m-184 -121 c-6 -37 -8 -37 -41 -3 -40 40 -47 164
-10 177 27 9 61 -106 51 -174z m-379 -99 c18 -94 -122 -128 -162 -40 -21 47
-18 57 24 91 52 43 124 16 138 -51z m-167 -144 c41 -100 41 -142 -1 -99 -18
17 -46 31 -63 31 -21 0 -26 11 -16 35 8 19 19 51 25 70 14 49 20 45 55 -37z
m248 -68 c51 -134 51 -140 6 -140 -19 0 -54 -13 -77 -29 -41 -29 -44 -25 -87
95 -25 68 -49 135 -54 148 -6 14 5 19 27 14 21 -6 55 3 77 20 49 36 57 29 108
-108z m1990 -108 c279 -131 391 -257 391 -442 1 -195 -130 -258 -370 -177
-119 40 -275 134 -256 153 7 8 -1 14 -18 14 -45 0 -61 65 -38 149 18 64 14 77
-36 127 -65 65 -69 162 -8 225 50 52 150 38 335 -49z m-2240 24 c30 -49 -8
-82 -75 -65 -51 13 -71 64 -39 97 24 23 91 4 114 -32z m102 -93 c12 -42 9 -45
-33 -32 -63 19 -61 15 -36 81 23 62 38 51 69 -49z m-177 -59 c-73 -31 -193
-15 -193 25 0 83 18 89 140 45 l117 -43 -64 -27z m110 -57 c67 -60 23 -187
-65 -187 -86 0 -127 115 -65 183 41 46 83 47 130 4z m519 -20 l392 -33 -27
-55 c-20 -40 -22 -69 -8 -107 20 -51 19 -52 -54 -43 -41 6 -205 20 -365 31
-393 29 -429 35 -399 71 13 16 20 60 15 99 -10 84 -54 80 446 37z m1280 -5
c32 -30 38 -52 27 -108 -15 -81 -5 -78 -369 -114 -115 -12 -240 -27 -277 -33
-65 -12 -66 -11 -43 33 13 25 19 76 13 113 -7 44 -2 68 13 68 13 1 128 18 254
38 302 48 334 48 382 3z m-2594 -32 c127 -27 234 -50 238 -50 4 0 3 -27 -2
-60 -5 -33 -18 -60 -30 -60 -34 0 -134 -104 -134 -140 0 -62 -45 -80 -204 -80
-149 0 -158 -3 -176 -50 -19 -49 -50 -66 -63 -34 -4 9 -119 64 -257 122 -293
125 -276 114 -234 156 26 27 568 241 617 245 8 1 118 -21 245 -49z m512 -9 c0
-21 -103 -81 -139 -81 -42 0 -19 34 44 65 77 39 95 41 95 16z m1369 -32 c37
-38 41 -111 7 -145 -42 -42 -132 -28 -168 26 -65 100 75 204 161 119z m-1289
-13 c0 -13 18 -43 41 -67 l41 -44 -63 -53 -63 -52 -59 63 -58 63 65 56 c72 62
96 70 96 34z m-264 -63 c4 -19 -6 -33 -23 -33 -38 0 -60 33 -42 61 18 29 58
13 65 -28z m154 -133 c19 -30 -7 -95 -44 -109 -47 -18 -58 6 -16 36 22 17 32
40 24 60 -18 48 -72 41 -93 -12 l-18 -45 -2 44 c-2 79 105 98 149 26z m-137
-115 c143 -154 144 -155 105 -195 -61 -62 -367 244 -309 309 51 56 44 60 204
-114z m807 73 c0 -107 -63 -105 -81 3 -10 63 -6 71 35 75 41 3 46 -5 46 -78z
m-850 -357 c-65 -65 -141 -15 -93 62 24 37 20 48 -30 98 -83 80 -106 113 -92
127 7 7 70 -43 139 -112 l126 -125 -50 -50z m269 280 c35 -22 17 -46 -40 -55
-38 -6 -54 32 -26 61 18 17 31 16 66 -6z m325 -79 c8 -7 -175 -128 -407 -269
-323 -196 -420 -246 -412 -214 6 22 3 46 -7 52 -29 18 -7 146 32 189 34 38 36
38 104 -14 l69 -53 49 61 c34 44 60 59 88 52 24 -7 40 -1 40 14 0 30 92 119
126 122 13 1 2 9 -26 17 l-50 15 54 26 c42 20 61 20 83 3 22 -19 30 -16 38 15
10 38 174 26 219 -16z m-1091 7 c17 -44 -25 -85 -56 -54 -25 25 -9 85 23 85
12 0 27 -14 33 -31z m267 -19 c0 -23 -26 -30 -110 -30 -84 0 -110 7 -110 30 0
23 26 30 110 30 84 0 110 -7 110 -30z m-355 -97 c-135 -180 -205 -246 -205
-195 0 35 183 243 202 231 12 -7 13 -22 3 -36z m170 -8 c11 -33 -52 -56 -79
-29 -11 11 -14 31 -6 43 17 29 74 19 85 -14z m285 16 c0 -24 -103 -121 -129
-121 -10 0 12 32 49 70 73 76 80 80 80 51z m-140 -41 c0 -11 -13 -20 -30 -20
-16 0 -30 -9 -30 -20 0 -11 -14 -20 -32 -20 -27 0 -30 -16 -17 -105 8 -58 16
-131 19 -162 2 -31 17 -65 32 -74 33 -20 45 -10 -167 -137 l-175 -105 -335
115 c-184 63 -342 120 -350 128 -9 7 96 65 233 129 264 123 329 126 345 17 3
-19 14 -38 26 -42 12 -4 21 -21 21 -38 0 -23 13 -27 53 -17 41 10 50 7 41 -16
-12 -31 24 -53 88 -53 21 0 38 14 38 30 0 17 10 30 21 30 12 0 15 11 7 23 -10
16 -3 19 22 10 30 -12 32 -9 11 16 -30 35 -8 118 25 97 16 -9 16 -4 -1 17 -48
59 46 214 130 216 14 1 25 -8 25 -19z m-280 -45 c-1 -51 -130 -253 -153 -239
-16 10 0 54 50 139 71 120 103 152 103 100z m78 -50 c-3 -78 -70 -272 -96
-281 -30 -10 -27 12 29 211 29 100 71 144 67 70z m193 -27 c7 -12 6 -29 -4
-39 -24 -24 -76 11 -58 39 17 28 45 28 62 0z m1 -148 c11 -45 -4 -127 -20
-108 -3 4 -12 42 -18 83 -13 83 18 104 38 25z m-868 -244 c118 -41 212 -77
208 -81 -14 -14 -403 102 -431 128 -45 41 -9 34 223 -47z m2069 -653 c28 -101
55 -225 60 -276 l11 -92 -85 22 c-72 19 -90 35 -120 106 -42 97 -10 85 -469
179 -198 40 -367 80 -376 88 -10 8 188 141 440 295 l456 281 16 -210 c9 -116
39 -292 67 -393z m563 -766 c41 -17 94 -35 118 -38 105 -14 113 -42 19 -66
-204 -52 -330 -12 -266 85 40 61 35 61 129 19z m2117 -18 c41 -8 127 -119 127
-163 0 -46 -396 -106 -508 -78 -53 13 -77 92 -29 92 13 0 18 6 11 13 -29 28
138 118 246 132 95 12 110 12 153 4z"/>
<path d="M5201 5561 c-47 -44 -62 -74 -57 -114 6 -57 56 -92 56 -40 0 56 82
63 122 10 l36 -47 28 68 c27 63 25 134 -3 150 -67 36 -123 28 -182 -27z"/>
<path d="M2214 4588 c-56 -57 23 -428 91 -428 76 0 101 50 90 177 -16 179
-115 316 -181 251z m86 -279 c0 -54 -35 -66 -53 -19 -15 40 8 96 33 80 11 -7
20 -34 20 -61z"/>
<path d="M2127 2850 c-7 -18 -3 -42 8 -53 33 -33 95 -11 95 33 0 51 -85 67
-103 20z m93 -20 c0 -17 -18 -30 -40 -30 -22 0 -40 13 -40 30 0 17 18 30 40
30 22 0 40 -13 40 -30z"/>
<path d="M3358 5600 c-422 -72 -669 -625 -464 -1040 137 -278 242 -345 456
-289 763 198 975 1202 281 1327 -130 24 -140 24 -273 2z m337 -70 c491 -146
358 -889 -205 -1153 -259 -121 -357 -100 -489 104 -361 558 83 1230 694 1049z"/>
<path d="M3029 4945 c-170 -118 -75 -505 123 -505 140 0 194 214 100 396 -46
90 -167 148 -223 109z m91 -255 c24 -62 5 -114 -38 -106 -53 10 -55 156 -2
156 11 0 30 -22 40 -50z"/>
<path d="M730 5039 c-396 -64 -722 -117 -725 -118 -9 -2 -5 -281 4 -281 9 0
170 31 266 51 31 7 45 0 45 -21 0 -16 -15 -30 -33 -30 -128 0 -287 -46 -287
-83 0 -22 7 -35 17 -29 9 6 78 20 155 32 76 12 160 27 186 34 30 7 43 4 35 -8
-15 -25 -246 -73 -272 -57 -10 7 -24 3 -31 -9 -7 -11 -30 -20 -51 -20 -28 0
-39 -14 -39 -48 l0 -47 133 28 c130 27 184 22 128 -12 -15 -10 -68 -23 -117
-31 -146 -22 -144 -19 -144 -184 l0 -149 60 13 c35 8 60 5 60 -7 0 -11 -27
-26 -60 -33 -56 -12 -60 -19 -60 -103 0 -97 -9 -92 120 -56 22 7 40 2 40 -9 0
-11 -36 -31 -80 -44 -44 -14 -80 -36 -80 -51 0 -32 10 -33 95 -8 50 14 65 12
65 -9 0 -15 -33 -32 -80 -40 -79 -13 -80 -14 -80 -102 0 -48 2 -88 5 -88 6 0
283 75 340 92 19 6 35 2 35 -9 0 -19 -76 -45 -295 -102 -83 -22 -112 -65 -60
-89 20 -10 20 -14 0 -24 -39 -18 -34 -196 5 -181 17 7 30 3 30 -8 0 -11 -13
-25 -30 -32 -17 -6 -30 -24 -30 -39 0 -34 -15 -35 140 12 153 47 140 45 140
21 0 -11 -61 -39 -137 -61 l-136 -42 -4 -149 c-2 -82 3 -149 12 -149 8 -1 395
127 860 284 l845 285 0 70 c0 39 -27 440 -60 891 -33 451 -60 831 -60 845 0
39 -96 29 -870 -96z m719 -357 c-17 -16 -311 -82 -366 -82 -77 0 1 38 132 64
185 37 260 43 234 18z m-669 -142 c0 -21 -10 -23 -240 -70 -174 -35 -200 -36
-200 -12 0 14 257 74 425 100 8 1 15 -7 15 -18z m500 -97 c0 -17 -384 -106
-398 -91 -19 19 25 35 182 69 199 42 216 44 216 22z m-440 -100 c0 -20 -778
-192 -794 -175 -22 21 -3 27 364 108 386 86 430 93 430 67z m20 -319 c0 -20
-196 -62 -212 -46 -13 13 120 58 177 60 19 1 35 -5 35 -14z m-260 -60 c0 -21
-358 -112 -375 -96 -19 20 -2 27 155 69 168 44 220 51 220 27z m-60 -423 c0
-10 -47 -32 -105 -48 -58 -17 -157 -45 -221 -63 -100 -29 -161 -30 -132 -2 7
7 409 125 443 130 8 1 15 -6 15 -17z m0 -299 c0 -21 -200 -89 -216 -73 -15 16
-5 22 96 57 109 37 120 39 120 16z m540 -20 c0 -23 -378 -151 -395 -134 -18
18 -10 22 195 87 105 34 192 62 195 63 3 1 5 -6 5 -16z"/>
<path d="M11 123 c27 -23 531 -123 612 -121 37 1 -72 32 -243 69 -320 70 -402
81 -369 52z"/>
</g>
</svg>
